<svg xmlns="http://www.w3.org/2000/svg" xmlns:xlink="http://www.w3.org/1999/xlink" id="Layer_1" x="0px" y="0px" viewBox="0 0 109 91" style="enable-background:new 0 0 109 91;" xml:space="preserve">
<style type="text/css">
	.st0{fill:none;}
	.st1{fill-rule:evenodd;clip-rule:evenodd;fill:#FFFFFF;}
</style>
<rect class="st0" width="109" height="91"></rect>
<path id="Path_252" class="st1" d="M54.5,7.2c-10.4,0-18.8,8.4-18.8,18.8l0,0v4.7H31c-2.4,0-4.4,1.8-4.7,4.2l-4.7,42.3  c-0.3,2.6,1.6,4.9,4.1,5.2c0.2,0,0.3,0,0.5,0h56.4c2.6,0,4.7-2.1,4.7-4.7c0-0.2,0-0.3,0-0.5l-4.7-42.3c-0.3-2.4-2.3-4.2-4.7-4.2  h-4.7V26C73.3,15.6,64.9,7.2,54.5,7.2C54.5,7.2,54.5,7.2,54.5,7.2z M63.9,30.7V26c0-5.2-4.2-9.4-9.4-9.4s-9.4,4.2-9.4,9.4  c0,0,0,0,0,0v4.7H63.9z M35.7,44.8c0-2.6,2.1-4.7,4.7-4.7c2.6,0,4.7,2.1,4.7,4.7c0,2.6-2.1,4.7-4.7,4.7l0,0  C37.8,49.5,35.7,47.4,35.7,44.8z M68.6,40.1c-2.6,0-4.7,2.1-4.7,4.7s2.1,4.7,4.7,4.7s4.7-2.1,4.7-4.7C73.3,42.2,71.2,40.1,68.6,40.1  L68.6,40.1z"></path>
</svg>